<?xml version="1.0" encoding="UTF-8"?>
<svg id="Layer_1" xmlns="http://www.w3.org/2000/svg" xmlns:xlink="http://www.w3.org/1999/xlink" version="1.1" viewBox="0 0 314 77">
  <!-- Generator: Adobe Illustrator 29.0.1, SVG Export Plug-In . SVG Version: 2.1.0 Build 192)  -->
  <defs>
    <style>
      .st0 {
        mask: url(#mask);
      }

      .st1 {
        fill: #fffffe;
      }

      .st1, .st2, .st3, .st4 {
        fill-rule: evenodd;
      }

      .st2 {
        fill: #fff;
      }

      .st5 {
        mask: url(#mask-1);
      }

      .st3 {
        fill: #af1735;
      }

      .st4 {
        fill: #1a1919;
      }
    </style>
    <mask id="mask" x="0" y=".5" width="313.2" height="76.4" maskUnits="userSpaceOnUse">
      <g id="a">
        <path class="st2" d="M0,.5h312.6v76.4H0V.5Z"/>
      </g>
    </mask>
    <mask id="mask-1" x="0" y=".5" width="312.6" height="76.5" maskUnits="userSpaceOnUse">
      <g id="a1" data-name="a">
        <path class="st2" d="M0,.5h312.6v76.4H0V.5Z"/>
      </g>
    </mask>
  </defs>
  <path class="st1" d="M38.7,75.6L1.8,38.6,38.7,1.7l36.9,36.9-36.9,36.9Z"/>
  <g>
    <path class="st4" d="M100.5,41.2c-2,0-4.3-.5-5.8-1.2l-1,1.3h-1.2l-.5-8.7h1.2c2.3,5.6,4.3,7.3,7.6,7.3s4.9-1.8,4.9-4.7-1.1-3.9-4.8-5.5c-1.3-.6-2.4-1-3.6-1.5-2.8-1.4-4.4-3.2-4.4-6.4,0-4.6,3.7-7.2,7.5-7.2s3.4.5,4.6,1.2l1-1.3h1.2l.7,7.6h-1.2c-2.2-4.7-3.9-6.2-6.6-6.2s-3.9,1.6-3.9,4.1,1.1,3.7,3.9,4.9c1.4.6,2.7,1.1,4.2,1.8,3.2,1.6,4.8,3.5,4.8,6.5,0,5.4-4.5,8-8.4,8"/>
    <path class="st4" d="M120.6,31.8c-4.9,0-7,1.8-7,4.1s1,2.8,2.8,2.8,2.7-.6,4.3-1.7v-5.2ZM123.9,37.7c0,1.2.7,1.7,3.3,1.5v.7c-.6.5-2.6,1.2-4.1,1.2s-2.3-.8-2.4-2.9h-.4c-1.9,1.8-3.7,2.9-5.7,2.9s-4.4-1.7-4.4-4.1c0-3.8,4.3-6,10.3-6.5v-2.2c0-3.1-1.3-4.1-4.1-4.1s-2.2.4-2.9.8c.8.5,1.5,1.3,1.5,2.1,0,1.2-.9,2-2.1,2s-2.1-.8-2.1-2c0-2.8,4.2-4.7,8-4.7s5,1.7,5,5.2v10.2Z"/>
    <path class="st4" d="M133.2,12.5c1.4,0,2.4,1.1,2.4,2.4s-1.1,2.7-2.7,2.7-2.4-1.1-2.4-2.5,1.1-2.7,2.6-2.7ZM128.8,24.5v-.9l6-1.4h.2v16.7l2.7.8v1.1h-8.9v-1.1l2.8-.8v-13l-2.8-1.3Z"/>
    <path class="st4" d="M156.7,38.8l2.8.8v1.1h-8.9v-1.1l2.7-.8v-9.7c0-2.8-1.1-4.4-3.5-4.4s-3,.7-4.6,1.8v12.2l2.7.8v1.1h-8.9v-1.1l2.8-.8v-13l-2.8-1.3v-.9l5.8-1.4.4.3-.3,3h.4c2.4-2.2,4.3-3.3,6.5-3.3,3.3,0,5,2.2,5,5.5v11.1Z"/>
    <path class="st4" d="M165.7,41c-2.6,0-4-1.5-4-4.7v-11.5h-3v-1.1l3.3-1.6,1.8-4.7h1.2v5.1h6v2.2h-6v10.2c0,1.5.2,2.3,1,2.9.5.4,1.2.5,2.6.5s1.6,0,2.5-.2v.9c-1.7,1.1-3.6,1.8-5.4,1.8"/>
    <path class="st4" d="M214.6,39.4v1.2h-12.5v-1.2l4.3-.8v-21h-.5l-9.1,23h-1.8l-9-23h-.5v20.7l3.5,1.1v1.2h-9.1v-1.2l3.5-1.1v-20.9l-3.5-.8v-1.2h9.3l1.5,4.1,5.9,15.8h.6l6-15.8,1.5-4.1h9.9v1.2l-4.3.8v21.4l4.3.8Z"/>
    <path class="st4" d="M225.6,31.8c-4.9,0-7,1.8-7,4.1s1,2.8,2.8,2.8,2.7-.6,4.3-1.7v-5.2ZM228.9,37.7c0,1.2.7,1.7,3.3,1.5v.7c-.6.5-2.6,1.2-4.1,1.2s-2.3-.8-2.4-2.9h-.4c-1.9,1.8-3.7,2.9-5.7,2.9s-4.4-1.7-4.4-4.1c0-3.8,4.3-6,10.3-6.5v-2.2c0-3.1-1.3-4.1-4.1-4.1s-2.2.4-2.9.8c.8.5,1.5,1.3,1.5,2.1,0,1.2-.9,2-2.1,2s-2.1-.8-2.1-2c0-2.8,4.2-4.7,8-4.7s5,1.7,5,5.3v10.2Z"/>
    <path class="st4" d="M245.6,27.2c-1.6,0-2.3-1.2-2.1-2.5-1.3-.1-2.9,1.4-3.8,3.1v11.1l2.9.8v1.1h-9.2v-1.1l2.8-.8v-13l-2.8-1.3v-.9l5.8-1.4.4.3-.3,3.5h.4c1.6-2.4,3.1-3.7,5.1-3.7s2.9,1.1,2.9,2.6-1,2.5-2.1,2.5"/>
    <path class="st4" d="M256.1,41c-2.6,0-4-1.5-4-4.7v-11.5h-3v-1.1l3.3-1.6,1.8-4.7h1.2v5.1h6v2.2h-6v10.2c0,1.5.2,2.3,1,2.9.5.4,1.2.5,2.6.5s1.6,0,2.5-.2v.9c-1.7,1.1-3.6,1.8-5.4,1.8"/>
    <path class="st4" d="M267.9,12.5c1.4,0,2.4,1.1,2.4,2.4s-1.1,2.7-2.7,2.7-2.4-1.1-2.4-2.5,1.1-2.7,2.6-2.7ZM263.4,24.5v-.9l6-1.4h.2v16.7l2.7.8v1.1h-8.9v-1.1l2.8-.8v-13l-2.8-1.3Z"/>
    <path class="st4" d="M292.4,38.8l2.8.8v1.1h-8.9v-1.1l2.7-.8v-9.7c0-2.8-1.1-4.4-3.5-4.4s-3,.7-4.6,1.8v12.2l2.7.8v1.1h-8.9v-1.1l2.8-.8v-13l-2.8-1.3v-.9l5.8-1.4.4.3-.3,3h.4c2.4-2.2,4.3-3.3,6.5-3.3,3.3,0,5,2.2,5,5.5v11.1Z"/>
    <path class="st4" d="M295.4,25.8l-.7-.8c2.4-1.8,3.9-3.9,4.1-5.8h-.2c0-.1,0,0,0,0-.3.2-.6.2-1,.2-1,0-1.8-.9-1.8-2.1s1.1-2.5,2.5-2.5,2.8,1.3,2.8,3.2c0,3.1-2.3,5.8-5.6,7.9"/>
    <path class="st4" d="M305.8,41.1c-2.1,0-4-.3-6-1.1v-5h1.2c1.3,3.5,2.9,4.7,5.4,4.7s3.5-1.1,3.5-3.1-1-2.4-4.3-3.7c-3.4-1.3-5.5-2.5-5.5-5.4s2.6-5.5,6.4-5.5,4.1.4,5.2.8v4.4c.1,0-.9.2-.9.2-1.5-3.1-2.9-4.1-4.9-4.1s-3.1,1.2-3.1,2.5,1,2.3,4,3.5c4.4,1.6,6,2.9,6,5.7s-3,5.8-7.1,5.8"/>
    <path class="st4" d="M102.3,51.1l2,.6v7.8c0,2.5-1.4,4.1-3.6,4.1s-4-1.3-4-4.1v-8.1l2.5-.4v-1h-7.3v1l2.2.4v8.4c0,3.5,2.1,5.3,6,5.3s5.8-2.2,5.8-5.6v-7.9l2-.6v-1h-5.5v1Z"/>
    <path class="st4" d="M128.3,51.1l2.2.6v8.7l-7.3-10.4h-5v1.1l2,.6v11.5l-2,.6v1h5.8v-1l-2.2-.6v-10.7l7.2,10.1,1.7,2.4h1.4v-13.3l2-.6v-1h-5.8v1Z"/>
    <path class="st4" d="M144.6,51.2l2.6.4v11.9l-2.6.4v1h7.7v-1l-2.5-.4v-11.9l2.5-.4v-1h-7.7v1Z"/>
    <path class="st4" d="M172.5,51.1l1.7.6-3.7,9.8-3.7-9.9,2.2-.4v-1h-7.1v1l2.1.6,5.3,13.4h1.2l5.3-13.3,1.9-.6v-1h-5.3v1Z"/>
    <path class="st4" d="M198.1,62.6c-.5.8-.8.9-2.1.9h-3.9v-5.4h1.2c1.3,0,1.7.3,2.1,1.8l.2.8h.9v-6.7h-.9l-.2.9c-.4,1.6-.9,1.8-2.1,1.8h-1.2v-5.3h2.8c1.4,0,1.6.2,2.4,1.1l1.5,1.9.7-.2-.6-4.1h-11.9v1l2.5.4v11.9l-2.5.4v1h12.8l.7-4.7h-.7c0-.1-1.7,2.3-1.7,2.3Z"/>
    <path class="st4" d="M215.9,51.5c.4,0,.9-.1,1.4-.1,1.5,0,3.3.5,3.3,2.7s-1.2,2.9-3.3,2.9h-1.4v-5.5ZM223.4,63c-.4-.4-.8-1.3-1.3-2.2-.1-.2-.2-.5-.4-.7-.6-1.1-1.5-2-2.5-2.3,2.7-.6,4.1-1.9,4.1-3.7s-2.1-3.9-5.7-3.9h-6.9v1l2.5.4v11.9l-2.5.4v1h7.4v-1l-2.4-.4v-5.1h.6c1.2,0,1.7.2,2.3,1.5l1.3,2.6c.9,1.8,1.4,2.5,3.3,2.5h2.4v-1h-.2c-1.3-.2-1.7-.4-2.2-.9h0Z"/>
    <path class="st4" d="M242.7,56.7c-.6-.3-1.2-.6-1.8-.8l-.6-.3c-1.5-.6-2.1-1.4-2.1-2.6s.8-2.1,2-2.1,2.4.9,3.6,3.5h0c0,.1,1,0,1,0l-.4-4.7h-.9l-.5.7c-.8-.4-1.6-.6-2.6-.6-2.2,0-4.5,1.5-4.5,4.3s.8,2.9,2.6,3.8c.4.2.9.4,1.3.6.3.1.5.2.8.3,2.2.9,2.6,1.8,2.6,2.9s-1,2.5-2.6,2.5-3-1.1-4.2-4.1h0c0-.1-1,0-1,0l.3,5.3h1l.6-.7c.9.4,2.2.6,3.3.6,2.4,0,5-1.7,5-4.7s-.9-2.9-2.8-3.9"/>
    <path class="st4" d="M256.4,51.2l2.6.4v11.9l-2.6.4v1h7.7v-1l-2.5-.4v-11.9l2.5-.4v-1h-7.7v1Z"/>
    <path class="st4" d="M275.3,50.1l-.8,4.6.7.2,1.3-1.9c.9-1.3,1.4-1.6,2.4-1.6h1.5v12l-2.6.4v1h7.8v-1l-2.6-.4v-12h1.3c1.1,0,1.5.3,2.4,1.6l1.3,1.8.7-.2-.9-4.6h-12.6Z"/>
    <g class="st0">
      <path class="st4" d="M307.6,50.1v1l1.9.5-3.4,5.6-3.5-5.7,2-.4v-1h-6.9v1l2.1.5,4.5,7.1v4.7l-2.6.4v1h7.8v-1l-2.6-.4v-5.1l4.4-6.6,1.9-.7v-1h-5.5Z"/>
    </g>
  </g>
  <g class="st5">
    <path class="st3" d="M38.7,74.7L2.6,38.6,38.7,2.6l36.1,36.1-36.1,36.1ZM38.7.5L.5,38.8l38.2,38.2,38.2-38.2L38.7.5Z"/>
  </g>
  <path class="st3" d="M60.3,40.5c-1,.9-2.3,1.7-3.8,2.2v-2.2h3.8ZM56.5,36.8v-2.2c1.5.5,2.8,1.3,3.8,2.2h-3.8ZM60.6,37.1c.5.5.9,1,1.2,1.6-.3.6-.8,1.1-1.2,1.6h-4v-3.1h4ZM56.2,40.5v2.3c-1.7.6-3.6.9-5.8.9v-3.3h5.8ZM50.4,36.8v-3.2c2.2,0,4.2.4,5.8.9v2.3h-5.8ZM50.4,40.2h5.8v-3.1h-5.8v3.1ZM48.6,44.8h-3.3v-.3h3.9c4.9,0,10.7-1,13.3-5.7v-.2c-2.6-4.7-8.4-5.7-13.4-5.7h-3.9v-.5h3.3c7.4,0,12.3,2.1,14.6,6.2-2.4,4.2-7.2,6.3-14.6,6.2ZM45.3,40.7h0v-.2h4.8v3.3c-.3,0-.6,0-.9,0h-3.9v-3.1ZM45.3,40.2h4.8v-3.1h-4.8v3.1ZM45.3,33.6h3.9c.3,0,.6,0,.9,0v3.2h-4.8v-3.2ZM44.9,32h-.4v-3.4c0-4.9-1-10.7-5.7-13.4h-.2c-4.7,2.6-5.8,8.5-5.7,13.4v3.3h-.4v-2.7c0-7.5,2.1-12.3,6.2-14.7,4.2,2.4,6.3,7.2,6.2,14.7v2.8ZM33.6,49.7c0-.3,0-.6,0-.9v-3.5h3.3v4.4h-3.3ZM36.8,56v3.7c-.9-1-1.7-2.2-2.2-3.7h2.2ZM34.5,55.7c-.6-1.7-.9-3.6-.9-5.8h3.3v5.8h-2.3ZM37.1,49.7v-4.4h0s3.1,0,3.1,0v4.4h-3.1ZM40.2,56v4c-.5.5-1,.9-1.6,1.2-.6-.3-1.1-.8-1.6-1.2v-4h3.1ZM37.1,55.7h3.1v-5.8h-3.1v5.8ZM40.5,49.7v-4.4h3.2v3.5c0,.3,0,.6,0,.9h-3.2ZM42.7,56c-.5,1.5-1.3,2.8-2.2,3.7v-3.7h2.2ZM40.5,55.7v-5.8h3.2c0,2.2-.4,4.1-.9,5.8h-2.3ZM43.8,27.7c0,.3,0,.6,0,.9v3.4h-3.3v-4.3h3.3ZM40.5,21.3v-3.8c.9,1,1.7,2.3,2.2,3.8h-2.2ZM42.8,21.6c.6,1.7.9,3.6.9,5.8h-3.3v-5.8h2.3ZM40.2,27.7v4.3h0c0,0-3.1,0-3.1,0v-4.3h3.1ZM37.1,21.3v-4c.5-.5,1-.9,1.6-1.2.6.3,1.1.8,1.6,1.2v4h-3.1ZM37.1,27.4h3.1v-5.8h-3.1v5.8ZM34.7,37c-.3.6.1.9.9.9h2.4s0-2.4,0-2.4c0-.7-.2-1.2-.9-.8,0-.8.5-1,.9-.8.2-.6.4-1,.7-1.1.4.1.5.5.7,1.1.5-.2,1,0,1,.8-.6-.2-.9,0-.9.9v2.4h2.4c.7,0,1.2-.2.9-.9.8,0,1,.5.8.9.6.2,1,.4,1.1.7-.1.4-.5.5-1.1.7.2.5,0,1-.8,1,.2-.6,0-.9-.9-.9h-2.4v2.4c0,.9.3,1.1.9.9,0,.8-.5,1-1,.8-.1.6-.3,1-.7,1.1-.3-.1-.5-.5-.7-1.1-.4.3-.9,0-.9-.8.6.3.9-.1.9-.9v-2.4s-2.4,0-2.4,0c-.9,0-1.1.3-.9.9-.8,0-1-.5-.8-1-.6-.1-1-.3-1.1-.7.1-.3.5-.5,1.1-.7-.3-.4,0-.9.8-.9ZM36.8,27.7v4.3h-3.2v-3.3c0-.3,0-.6,0-.9h3.2ZM34.7,21.3c.5-1.5,1.3-2.8,2.2-3.8v3.8h-2.2ZM36.8,21.6v5.8h-3.2c0-2.2.4-4.2.9-5.8h2.3ZM44.8,48.1c0,7.4-2.1,12.3-6.2,14.6-4.2-2.4-6.3-7.2-6.2-14.6v-2.9h.4v3.5c0,4.9,1,10.7,5.7,13.3h.2c4.7-2.6,5.8-8.4,5.7-13.3v-3.5h.4v2.9ZM17.1,36.9c1-.9,2.3-1.7,3.8-2.2v2.2h-3.8ZM20.9,40.6v2.2c-1.5-.5-2.8-1.3-3.8-2.2h3.8ZM16.8,40.3c-.5-.5-.9-1-1.2-1.6.3-.6.8-1.1,1.2-1.6h4v3.1h-4ZM21.1,36.9v-2.3c1.7-.6,3.6-.9,5.8-.9v3.3h-5.8ZM27,40.6v3.2c-2.2,0-4.2-.4-5.8-.9v-2.3h5.8ZM21.1,40.3h5.8v-3.1h-5.8v3.1ZM32.1,32.9h-3.9c-4.9,0-10.7,1-13.3,5.7v.2c2.6,4.7,8.4,5.8,13.3,5.7h3.8v.3h-3.2c-7.4,0-12.3-2.1-14.6-6.2,2.4-4.2,7.2-6.3,14.6-6.2h3.3v.6ZM32.1,36.8h0c0,.1-4.8.1-4.8.1v-3.3c.3,0,.6,0,.9,0h3.9v3.2ZM27.2,40.3h4.8v-3.1h-4.8v3.1ZM32,43.8h-3.8c-.3,0-.6,0-.9,0v-3.2h4.8v3.2ZM48.6,32h-3.3v-2.8c0-5.8-1.1-12.1-6.6-15.1h-.1c-5.4,3-6.6,9.4-6.6,15.1v2.7h-3.3c-5.7,0-12,1.2-15.1,6.6h0c3,5.5,9.3,6.7,15.1,6.7h3.2v2.9c0,5.7,1.1,12,6.6,15h.1c5.4-3,6.6-9.3,6.6-15v-2.9h3.3c5.7,0,12.1-1.1,15.1-6.5h0c-3-5.5-9.3-6.7-15.1-6.7Z"/>
  <path class="st3" d="M53.7,49.3c-2.3,0-4.4-.7-6.2-2,1.2,1.7,1.9,3.8,1.9,6,0,5.9-4.8,10.7-10.7,10.7s-10.7-4.8-10.7-10.7.7-4.3,1.9-6c-1.8,1.2-3.9,2-6.2,2-5.9,0-10.7-4.8-10.7-10.7s4.8-10.7,10.7-10.7,4.4.7,6.2,2c-1.2-1.7-1.9-3.8-1.9-6,0-5.9,4.8-10.7,10.7-10.7s10.7,4.8,10.7,10.7-.7,4.3-1.9,6c1.7-1.2,3.9-2,6.2-2,5.9,0,10.7,4.8,10.7,10.7s-4.8,10.7-10.7,10.7ZM38.8,5.5L5.7,38.5l33.1,33.1,33.1-33.1L38.8,5.5Z"/>
</svg>